<svg width="179" height="74" viewBox="0 0 179 74" fill="none" xmlns="http://www.w3.org/2000/svg">
<path d="M0.000355452 74V1.27273H39.0629V3.54545H2.27308V36.5H35.6538V38.7727H2.27308V74H0.000355452ZM114.604 37.6364C114.604 45.0464 113.338 51.5568 110.805 57.1676C108.272 62.7784 104.744 67.1581 100.222 70.3068C95.7005 73.4318 90.4567 74.9943 84.4908 74.9943C78.5012 74.9943 73.2455 73.42 68.7237 70.2713C64.2019 67.1226 60.6745 62.7429 58.1413 57.1321C55.6319 51.5213 54.3771 45.0227 54.3771 37.6364C54.3771 30.2263 55.6437 23.7277 58.1768 18.1406C60.71 12.5298 64.2375 8.15009 68.7592 5.00142C73.281 1.85274 78.5249 0.278406 84.4908 0.278406C90.4567 0.278406 95.7005 1.85274 100.222 5.00142C104.744 8.12642 108.272 12.4943 110.805 18.1051C113.338 23.7159 114.604 30.2263 114.604 37.6364ZM112.332 37.6364C112.332 30.6761 111.16 24.5682 108.816 19.3125C106.472 14.0331 103.205 9.92566 99.0149 6.99006C94.8482 4.03077 90.0069 2.55113 84.4908 2.55113C78.9983 2.55113 74.157 4.01894 69.9666 6.95454C65.8 9.86648 62.5329 13.9621 60.1655 19.2415C57.8217 24.4972 56.6499 30.6288 56.6499 37.6364C56.6499 44.5492 57.8099 50.6454 60.13 55.9247C62.45 61.1804 65.6934 65.2997 69.8601 68.2827C74.0504 71.242 78.9273 72.7216 84.4908 72.7216C90.0069 72.7216 94.8601 71.2538 99.0504 68.3182C103.241 65.3589 106.508 61.2514 108.852 55.9957C111.195 50.7164 112.355 44.5966 112.332 37.6364ZM133.203 74V1.27273H154.51C158.582 1.27273 162.181 2.13684 165.306 3.86506C168.454 5.59327 170.917 8.00805 172.692 11.1094C174.491 14.2107 175.391 17.8447 175.391 22.0114C175.391 26.1307 174.491 29.741 172.692 32.8423C170.917 35.92 168.454 38.3229 165.306 40.0511C162.181 41.7557 158.582 42.608 154.51 42.608H134.34V40.3352H154.51C158.156 40.3352 161.376 39.5777 164.169 38.0625C166.963 36.5473 169.153 34.4167 170.739 31.6705C172.325 28.9242 173.118 25.7045 173.118 22.0114C173.118 18.2945 172.325 15.0511 170.739 12.2812C169.153 9.51136 166.963 7.36884 164.169 5.85369C161.376 4.31486 158.156 3.54545 154.51 3.54545H135.476V74H133.203ZM160.902 40.9034L178.8 74H176.243L158.346 40.9034H160.902Z" fill="#D7CEC9"/>
</svg>
