<svg width="556" height="73" viewBox="0 0 556 73" fill="none" xmlns="http://www.w3.org/2000/svg">
<path d="M0.1 3H31.3V4.89999H25.5V35.9H45.4V4.89999H39.5V3H70.8V4.89999H64.9V71.1H70.8V73H39.5V71.1H45.4V38.5H25.5V71.1H31.3V73H0.1V71.1H6V4.89999H0.1V3ZM116.102 71.1L108.802 49.5H89.0023L81.3023 71.1H88.8023V73H73.5023V71.1H78.2023L103.702 2.4H111.902L137.102 71.1H141.702V73H109.002V71.1H116.102ZM99.3023 21.1L89.9023 47.3H108.002L99.3023 21.1ZM201.336 4.89999V73H187.336L153.036 8.3V71.1H158.536V73H144.836V71.1H150.336V4.89999H144.836V3H172.436L198.636 53.2V4.89999H193.136V3H206.836V4.89999H201.336ZM280.728 36.8C280.728 50.5333 276.861 60.1 269.128 65.5C261.995 70.5 252.195 73 239.728 73H211.428V71.1H218.028V4.89999H211.428V3H242.328C255.128 3 264.728 5.63333 271.128 10.9C277.528 16.1 280.728 24.7333 280.728 36.8ZM237.528 71.1H241.328C248.061 71.1 252.861 68.7333 255.728 64C258.661 59.2 260.128 51.2 260.128 40V34.2C260.128 19.2 257.261 10.1667 251.528 7.1C248.795 5.63333 244.928 4.89999 239.928 4.89999H237.528V71.1ZM296.18 0.272725V73H298.453V7.375H298.737L326.862 73H329.135L357.26 7.375H357.544V73H359.816V0.272725H357.828L328.14 69.5909H327.856L298.169 0.272725H296.18ZM376.826 73L385.633 48.4261H418.304L427.11 73H429.525L403.531 0.272725H400.406L374.412 73H376.826ZM386.414 46.1534L401.826 3.11363H402.11L417.522 46.1534H386.414ZM463.163 73C484.506 73 496.899 59.5767 496.97 36.3523C497.006 13.7315 485.074 0.272725 465.01 0.272725H444.129V73H463.163ZM446.402 70.7273V2.54545H465.01C483.866 2.54545 494.626 15.152 494.697 36.3523C494.768 57.9077 483.334 70.7273 463.163 70.7273H446.402ZM515.614 73H555.386V70.7273H517.886V37.7727H552.261V35.5H517.886V2.54545H554.392V0.272725H515.614V73Z" fill="#D7CEC9"/>
</svg>
