<svg width="526" height="230" viewBox="0 0 526 230" fill="none" xmlns="http://www.w3.org/2000/svg">
<path d="M55.625 112.6L65.225 110.2V7.8L55.625 5.39999V2.99999H100.425C118.132 2.99999 130.825 5.93333 138.505 11.8C146.185 17.56 150.025 26.0933 150.025 37.4C150.025 48.7067 146.185 57.2933 138.505 63.16C130.825 68.92 118.132 71.8 100.425 71.8H91.625V110.2L101.225 112.6V115H55.625V112.6ZM100.425 67.8C107.145 67.8 112.532 65.24 116.585 60.12C120.745 55 122.825 47.4267 122.825 37.4C122.825 27.48 120.745 19.96 116.585 14.84C112.532 9.61333 107.145 7 100.425 7H91.625V67.8H100.425ZM163.594 115V112.6L173.194 110.2V7.8L163.594 5.39999V2.99999H209.194V5.39999L199.594 7.8V110.2L209.194 112.6V115H163.594ZM264.356 117.4C256.783 117.4 249.69 115.693 243.076 112.28C240.09 110.787 237.583 109.027 235.556 107C234.063 109.453 232.196 111.64 229.956 113.56C228.036 114.947 226.97 115.693 226.756 115.8H222.756V85.4H229.156C230.756 90.6267 232.996 95.32 235.876 99.48C242.383 108.76 250.81 113.4 261.156 113.4C267.236 113.4 272.09 111.587 275.716 107.96C279.343 104.333 281.156 99.48 281.156 93.4C281.156 89.88 280.09 86.7333 277.956 83.96C275.93 81.1867 273.37 78.7333 270.276 76.6C267.183 74.4667 262.863 71.8 257.316 68.6C250.276 64.6533 244.57 61.08 240.196 57.88C235.823 54.68 232.09 50.68 228.996 45.88C225.903 40.9733 224.356 35.2133 224.356 28.6C224.356 23.3733 225.796 18.68 228.676 14.52C231.663 10.2533 236.09 6.89333 241.956 4.43999C247.823 1.87999 255.023 0.599995 263.556 0.599995C269.743 0.599995 275.93 2.35999 282.116 5.87999C284.463 7.16 286.81 8.86666 289.156 11C290.97 8.22666 292.836 6.03999 294.756 4.43999C296.676 3.05333 297.743 2.30666 297.956 2.19999H301.956V32.6H295.556C294.17 27.48 292.09 22.84 289.316 18.68C286.756 14.6267 283.556 11.2667 279.716 8.6C275.983 5.93333 271.663 4.59999 266.756 4.59999C262.596 4.59999 259.023 6.25333 256.036 9.55999C253.05 12.8667 251.556 17.08 251.556 22.2C251.556 26.1467 252.676 29.72 254.916 32.92C257.263 36.0133 260.09 38.7333 263.396 41.08C266.81 43.4267 271.396 46.2533 277.156 49.56C283.876 53.4 289.316 56.8133 293.476 59.8C297.636 62.7867 301.156 66.52 304.036 71C306.916 75.3733 308.356 80.44 308.356 86.2C308.356 91.96 306.703 97.24 303.396 102.04C300.09 106.733 295.13 110.467 288.516 113.24C281.903 116.013 273.85 117.4 264.356 117.4ZM373.913 117.4C356.846 117.4 343.513 112.333 333.913 102.2C324.313 92.0667 319.513 77.6667 319.513 59C319.513 46.7333 321.593 36.2267 325.753 27.48C330.019 18.6267 335.939 11.96 343.513 7.47999C351.193 2.89333 360.046 0.599995 370.073 0.599995C376.153 0.599995 382.286 2.35999 388.473 5.87999C390.819 7.16 393.166 8.86666 395.513 11C397.326 8.22666 399.193 6.03999 401.113 4.43999C403.033 3.05333 404.099 2.30666 404.313 2.19999H408.313V32.6H401.913C400.526 27.48 398.446 22.84 395.673 18.68C393.113 14.6267 389.913 11.2667 386.073 8.6C382.339 5.93333 378.019 4.59999 373.113 4.59999C365.753 4.59999 359.619 8.86666 354.713 17.4C349.913 25.9333 347.513 39.8 347.513 59C347.513 78.52 350.126 92.4933 355.353 100.92C360.686 109.24 367.939 113.4 377.113 113.4C382.126 113.4 386.873 112.013 391.353 109.24C395.939 106.36 399.619 102.573 402.393 97.88C405.273 93.1867 406.713 88.2267 406.713 83H410.713C410.713 89.08 409.059 94.7867 405.753 100.12C402.553 105.347 398.126 109.56 392.473 112.76C386.926 115.853 380.739 117.4 373.913 117.4ZM410.05 112.6L422.85 107.8L466.85 1.39999H471.65L517.25 110.2L525.25 112.6V115H506.05C500.503 115 495.97 113.773 492.45 111.32C488.93 108.76 486.317 105.453 484.61 101.4L476.45 82.2H438.21L427.65 107.8L439.65 112.6V115H410.05V112.6ZM439.81 78.2H474.85L457.25 36.12L439.81 78.2ZM42.0125 229.4C34.4392 229.4 27.3458 227.693 20.7325 224.28C17.7458 222.787 15.2392 221.027 13.2125 219C11.7192 221.453 9.8525 223.64 7.6125 225.56C5.6925 226.947 4.62583 227.693 4.4125 227.8H0.4125V197.4H6.8125C8.4125 202.627 10.6525 207.32 13.5325 211.48C20.0392 220.76 28.4658 225.4 38.8125 225.4C44.8925 225.4 49.7458 223.587 53.3725 219.96C56.9992 216.333 58.8125 211.48 58.8125 205.4C58.8125 201.88 57.7458 198.733 55.6125 195.96C53.5858 193.187 51.0258 190.733 47.9325 188.6C44.8392 186.467 40.5192 183.8 34.9725 180.6C27.9325 176.653 22.2258 173.08 17.8525 169.88C13.4792 166.68 9.74583 162.68 6.6525 157.88C3.55917 152.973 2.0125 147.213 2.0125 140.6C2.0125 135.373 3.4525 130.68 6.3325 126.52C9.31917 122.253 13.7458 118.893 19.6125 116.44C25.4792 113.88 32.6792 112.6 41.2125 112.6C47.3992 112.6 53.5858 114.36 59.7725 117.88C62.1192 119.16 64.4658 120.867 66.8125 123C68.6258 120.227 70.4925 118.04 72.4125 116.44C74.3325 115.053 75.3992 114.307 75.6125 114.2H79.6125V144.6H73.2125C71.8258 139.48 69.7458 134.84 66.9725 130.68C64.4125 126.627 61.2125 123.267 57.3725 120.6C53.6392 117.933 49.3192 116.6 44.4125 116.6C40.2525 116.6 36.6792 118.253 33.6925 121.56C30.7058 124.867 29.2125 129.08 29.2125 134.2C29.2125 138.147 30.3325 141.72 32.5725 144.92C34.9192 148.013 37.7458 150.733 41.0525 153.08C44.4658 155.427 49.0525 158.253 54.8125 161.56C61.5325 165.4 66.9725 168.813 71.1325 171.8C75.2925 174.787 78.8125 178.52 81.6925 183C84.5725 187.373 86.0125 192.44 86.0125 198.2C86.0125 203.96 84.3592 209.24 81.0525 214.04C77.7458 218.733 72.7858 222.467 66.1725 225.24C59.5592 228.013 51.5058 229.4 42.0125 229.4ZM117.969 224.6L127.569 222.2V119H109.169C109.169 125.507 107.409 131.747 103.889 137.72C102.395 140.173 100.689 142.2 98.7688 143.8H93.9688V115H187.569V143.8H182.769C180.742 142.2 178.982 140.173 177.489 137.72C174.075 131.96 172.369 125.72 172.369 119H153.969V222.2L163.569 224.6V227H117.969V224.6ZM247.606 229.4C237.153 229.4 227.98 227.16 220.086 222.68C212.3 218.093 206.273 211.427 202.006 202.68C197.74 193.933 195.606 183.373 195.606 171C195.606 158.627 197.74 148.067 202.006 139.32C206.273 130.573 212.3 123.96 220.086 119.48C227.98 114.893 237.153 112.6 247.606 112.6C258.06 112.6 267.18 114.893 274.966 119.48C282.86 123.96 288.94 130.573 293.206 139.32C297.473 148.067 299.606 158.627 299.606 171C299.606 183.373 297.473 193.933 293.206 202.68C288.94 211.427 282.86 218.093 274.966 222.68C267.18 227.16 258.06 229.4 247.606 229.4ZM247.606 226.2C251.766 226.2 255.606 224.44 259.126 220.92C262.753 217.4 265.74 211.533 268.086 203.32C270.433 195.107 271.606 184.333 271.606 171C271.606 157.667 270.433 146.893 268.086 138.68C265.74 130.467 262.753 124.6 259.126 121.08C255.606 117.56 251.766 115.8 247.606 115.8C243.446 115.8 239.553 117.56 235.926 121.08C232.406 124.6 229.473 130.467 227.126 138.68C224.78 146.893 223.606 157.667 223.606 171C223.606 184.333 224.78 195.107 227.126 203.32C229.473 211.533 232.406 217.4 235.926 220.92C239.553 224.44 243.446 226.2 247.606 226.2ZM314.844 224.6L324.444 222.2V119.8L314.844 117.4V115H357.244C375.377 115 388.444 117.773 396.444 123.32C404.444 128.76 408.444 136.387 408.444 146.2C408.444 152.813 406.684 158.2 403.164 162.36C399.644 166.413 395.11 169.453 389.564 171.48C383.697 173.72 377.457 174.893 370.844 175V175.8C374.79 176.013 378.257 176.6 381.244 177.56C388.71 179.907 393.777 184.12 396.444 190.2L410.844 222.2L418.844 224.6V227H396.444C387.697 227 381.297 222.467 377.244 213.4L361.244 177.4H350.844V222.2L362.044 224.6V227H314.844V224.6ZM357.244 173.4C364.71 173.4 370.577 171.053 374.844 166.36C379.11 161.667 381.244 154.947 381.244 146.2C381.244 137.453 379.11 130.733 374.844 126.04C370.577 121.347 364.71 119 357.244 119H350.844V173.4H357.244ZM426.875 224.6L436.475 222.2V119.8L426.875 117.4V115H512.475V143.8H507.675C505.648 142.2 503.888 140.173 502.395 137.72C498.982 131.96 497.275 125.72 497.275 119H462.875V169.4H481.275C482.022 165.347 483.408 161.56 485.435 158.04C486.288 156.44 487.302 154.893 488.475 153.4H493.275V189.4H488.475C487.302 187.907 486.288 186.36 485.435 184.76C483.408 181.24 482.022 177.453 481.275 173.4H462.875V223H500.475C500.475 216.28 502.182 210.04 505.595 204.28C507.088 201.827 508.848 199.8 510.875 198.2H515.675V227H426.875V224.6Z" fill="#D7CEC9"/>
</svg>
