<svg width="194" height="74" viewBox="0 0 194 74" fill="none" xmlns="http://www.w3.org/2000/svg">
<path d="M0.791904 1.27273L26.9283 39.483V74H29.201V39.483L55.3374 1.27273H52.4964L28.2067 36.9261H27.9226L3.63281 1.27273H0.791904ZM122.765 37.6364C122.765 15.4062 110.549 0.278406 92.6509 0.278406C74.7177 0.278406 62.5373 15.4418 62.5373 37.6364C62.5373 59.7955 74.6822 74.9943 92.6509 74.9943C110.549 74.9943 122.765 59.8665 122.765 37.6364ZM120.492 37.6364C120.527 58.517 109.199 72.7216 92.6509 72.7216C75.9251 72.7216 64.81 58.375 64.81 37.6364C64.81 16.6136 76.1737 2.55113 92.6509 2.55113C109.199 2.55113 120.456 16.7557 120.492 37.6364ZM191.364 1.27273V49.4261C191.364 62.8849 181.207 72.8636 167.5 72.8636C153.793 72.8636 143.636 62.8849 143.636 49.4261V1.27273H141.364V49.4261C141.293 64.1278 152.621 75.1364 167.5 75.1364C182.45 75.1364 193.636 64.1634 193.636 49.4261V1.27273H191.364Z" fill="#D7CEC9"/>
</svg>
